<?xml version="1.0" standalone="no"?><!DOCTYPE svg PUBLIC "-//W3C//DTD SVG 1.1//EN" "http://www.w3.org/Graphics/SVG/1.1/DTD/svg11.dtd"><svg t="1582005393698" class="icon" viewBox="0 0 1024 1024" version="1.1" xmlns="http://www.w3.org/2000/svg" p-id="1337" xmlns:xlink="http://www.w3.org/1999/xlink" width="200" height="200"><defs><style type="text/css"></style></defs><path d="M902.386347 299.738453c-0.02048-0.02048 0-0.054613-0.02048-0.085333-0.4096-1.93536-1.1264-3.754667-2.048-5.471573-0.211627-0.395947-0.426667-0.771413-0.648533-1.153707-1.04448-1.723733-2.22208-3.34848-3.67616-4.73088l0-0.01024L618.038613 24.139093c-0.006827 0-0.034133-0.01024-0.034133-0.03072l-0.037547-0.027307c-0.01024-0.013653-0.044373-0.013653-0.064853-0.03072-1.419947-1.355093-3.085653-2.450773-4.840107-3.42016-0.433493-0.23552-0.853333-0.457387-1.314133-0.662187-1.764693-0.836267-3.631787-1.52576-5.618347-1.921707-0.170667-0.01024-0.324267-0.01024-0.47104-0.017067-1.344853-0.24576-2.69312-0.402773-4.12672-0.402773L201.8816 17.626453c-36.939093 0-67.003733 28.699307-67.003733 63.993173l0 864.576853c0 35.283627 30.06464 64.01024 67.003733 64.01024l633.965227 0c36.94592 0 66.993493-28.726613 66.993493-64.01024L902.84032 304.049493C902.84032 302.578347 902.66624 301.134507 902.386347 299.738453M823.197013 281.82528l-198.362453 0L624.83456 93.313707 823.197013 281.82528zM856.306347 946.213547c0 10.769067-9.17504 19.554987-20.45952 19.554987L201.8816 965.768533c-11.30496 0-20.476587-8.779093-20.476587-19.554987L181.405013 81.629867c0-10.789547 9.17504-19.551573 20.476587-19.551573l376.425813 0 0 241.96096c0 12.274347 10.43456 22.224213 23.261867 22.224213l254.743893 0L856.306347 946.213547 856.306347 946.213547z" p-id="1338" fill="#8a8a8a"></path><path d="M711.3216 738.78528 313.50784 738.78528c-12.20608 0-22.09792 10.417493-22.09792 23.27552 0 12.87168 9.888427 23.27552 22.09792 23.27552l397.810347 0c12.19584 0 22.09792-10.407253 22.09792-23.27552C733.412693 749.202773 723.51744 738.78528 711.3216 738.78528" p-id="1339" fill="#8a8a8a"></path><path d="M711.3216 585.63584 313.50784 585.63584c-12.20608 0-22.09792 10.41408-22.09792 23.261867 0 12.868267 9.888427 23.272107 22.09792 23.272107l397.810347 0c12.19584 0 22.09792-10.386773 22.09792-23.272107C733.412693 596.04992 723.51744 585.63584 711.3216 585.63584" p-id="1340" fill="#8a8a8a"></path><path d="M291.396267 455.758507c0 12.8512 9.89184 23.261867 22.09792 23.261867l397.810347 0c12.209493 0 22.104747-10.410667 22.104747-23.261867 0-12.864853-9.888427-23.268693-22.104747-23.268693L313.494187 432.489813C301.29152 432.493227 291.396267 442.893653 291.396267 455.758507" p-id="1341" fill="#8a8a8a"></path></svg>