<?xml version="1.0" standalone="no"?><!DOCTYPE svg PUBLIC "-//W3C//DTD SVG 1.1//EN" "http://www.w3.org/Graphics/SVG/1.1/DTD/svg11.dtd"><svg t="1599899644080" class="icon" viewBox="0 0 1024 1024" version="1.1" xmlns="http://www.w3.org/2000/svg" p-id="1967" width="16" height="16" xmlns:xlink="http://www.w3.org/1999/xlink"><defs><style type="text/css"></style></defs><path d="M456.937143 0h114.422857l303.188571 863.828571c12.377143 34.331429 26.205714 59.828571 41.474286 76.502858 15.245714 16.697143 36.708571 25.017143 64.365714 25.017142h15.725715V1024H648.571429v-58.64c39.085714 0 64.834286-2.845714 77.234285-8.56 12.377143-5.714286 18.594286-16.194286 18.594286-31.462857 0-14.297143-6.205714-39.085714-18.594286-74.365714l-64.365714-187.348572h-353.257143L233.828571 873.84c-7.634286 20.982857-11.428571 37.188571-11.428571 48.617143 0 16.217143 6.434286 27.417143 19.302857 33.6 12.857143 6.205714 38.845714 9.291429 77.954286 9.291428V1024H27.885714v-58.64c36.24 0 61.965714-6.662857 77.234286-20.011429 15.245714-13.337143 30.971429-42.902857 47.188571-88.674285L456.937143 0zM333.954286 594.948571h301.771428L484.114286 125.851429 333.954286 594.948571z" p-id="1968" fill="#8a8a8a"></path></svg>