<?xml version="1.0" standalone="no"?><!DOCTYPE svg PUBLIC "-//W3C//DTD SVG 1.1//EN" "http://www.w3.org/Graphics/SVG/1.1/DTD/svg11.dtd"><svg t="1581931531605" class="icon" viewBox="0 0 1024 1024" version="1.1" xmlns="http://www.w3.org/2000/svg" p-id="2756" xmlns:xlink="http://www.w3.org/1999/xlink" width="200" height="200"><defs><style type="text/css"></style></defs><path d="M958.444958 779.301905 822.372863 630.845759c-8.107655-8.826016-21.666462-9.656941-30.779004-2.0241L625.835651 767.484765 353.783559 463.629339c-8.216125-9.154497-22.234397-9.962909-31.435966-1.831718L65.557088 688.963411 65.557088 65.556065 958.439842 65.556065l0 713.74584L958.444958 779.301905zM958.444958 958.443935 65.557088 958.443935 65.557088 748.564857l269.742491-238.635005 271.682679 303.419498c8.042163 9.001001 21.756513 9.897418 30.953989 2.225691l165.931147-138.842185L953.149349 839.59306c1.52575 1.681292 3.441379 2.686179 5.29561 3.76986L958.444958 958.443935zM980.763267 20.912285 43.236733 20.912285c-12.342096 0-22.323425 9.986445-22.323425 22.323425L20.913309 980.76736c0 12.339026 9.986445 22.320355 22.323425 22.320355l937.526533 0c12.343119 0 22.323425-9.981329 22.323425-22.320355L1003.086691 43.23571C1003.087715 30.898731 993.106386 20.912285 980.763267 20.912285z" p-id="2757" fill="#8a8a8a"></path><path d="M690.574095 280.166911c31.41243 0 56.985876 25.569352 56.985876 56.981782 0 31.413454-25.569352 56.963363-56.985876 56.963363-31.408337 0-56.958246-25.549909-56.958246-56.963363C633.615848 305.736263 659.165758 280.166911 690.574095 280.166911zM690.574095 438.754812c56.111972 0 101.628632-45.473681 101.628632-101.601003 0-56.111972-45.51666-101.628632-101.628632-101.628632-56.084343 0-101.602026 45.51666-101.602026 101.628632C588.973092 393.281131 634.489752 438.754812 690.574095 438.754812z" p-id="2758" fill="#8a8a8a"></path></svg>