<?xml version="1.0" encoding="utf-8"?>
<svg version="1.1" xmlns:xlink="http://www.w3.org/1999/xlink" width="16px" height="16px" xmlns="http://www.w3.org/2000/svg">
  <g transform="matrix(1 0 0 1 -28 -532 )">
    <path d="M 36 533  C 39.92 533  43 536.08  43 540  C 43 543.92  39.92 547  36 547  C 32.08 547  29 543.92  29 540  C 29 536.08  32.08 533  36 533  Z " fill-rule="nonzero" fill="#ffffff" stroke="none" />
    <path d="M 36 533  C 39.92 533  43 536.08  43 540  C 43 543.92  39.92 547  36 547  C 32.08 547  29 543.92  29 540  C 29 536.08  32.08 533  36 533  Z " stroke-width="2" stroke="#063f4a" fill="none" />
  </g>
</svg>