<?xml version="1.0" encoding="utf-8"?>
<svg version="1.1" xmlns:xlink="http://www.w3.org/1999/xlink" width="31px" height="28px" xmlns="http://www.w3.org/2000/svg">
  <g transform="matrix(1 0 0 1 -1220 -17 )">
    <path d="M 28.820319476983 17.8686991079445  C 30.0131717000399 17.8686991079445  30.9253528310524 16.9618500597503  30.8109756097561 15.7759705602315  L 30.8109756097561 12.9856657937743  C 30.9143601298362 11.9768137654135  30.1790278754564 11.0819482446423  29.1558127887878 10.919256939449  C 29.1171108438131 10.7471758337057  29.0754125240128 10.5756174335721  29.0308228233057 10.4046339291136  C 28.0484739101857 6.84699535821099  25.7329372097937 3.84741776230371  22.5052193783892 1.9639620440408  C 19.2073338012629 0.0805063619510268  15.4884414951055 -0.40779699116987  11.8397170074415 0.568809678898792  C 8.26116030188502 1.54541634896745  5.24394581680322 3.84741776230371  3.34941577267072 7.05626822383423  C 2.63467640225126 8.29317141192995  2.11967477539003 9.58964566596529  1.80817859088957 10.9194712453743  C 0.791906047358218 11.0769419326797  0.0652681510788834 11.9182756508936  0.189024390243902 12.9856657937743  L 0.189024390243902 15.7759705602315  C 0.0574893457804584 16.9104524324257  0.886612740296378 17.7895668191323  2.00310831882791 17.863639750965  C 3.75524543325777 23.9579447291216  9.3816320159867 27.9835538094838  15.4884414951055 27.9835538094838  C 16.6812937545482 27.9835538094838  17.8741460139909 27.844038565735  19.1371660191554 27.4254928706616  C 19.8388437674593 27.2859776269128  20.3300182422123 26.5186438224674  20.1195148958896 25.751310018022  C 19.9791793316744 25.053733835451  19.2073337648771 24.5654304823301  18.4354881980798 24.7747033479533  C 12.4010592279161 26.3791285787186  6.29646247564497 22.821490007816  4.68260355994272 16.8920924378759  C 4.51770529383745 16.2791204614524  4.40701591558391 15.6654202145378  4.34756097560976 15.0558284796267  L 4.34756097560976 12.9856657937743  C 4.34649599308265 12.9718385074841  4.34530420310299 12.9580326339422  4.34398664967173 12.9442497656771  C 4.77128735978979 8.42320665371103  7.96852614085839 4.468606340328  12.6115625742388 3.21959920160712  C 15.4884414951055 2.45226536098856  18.5056559801873 2.87081109223505  21.1018638090096 4.33572107925148  C 23.6980716378319 5.80063110244104  25.5224338998568 8.24214775952613  26.2942794666541 11.1022101116846  C 26.4877753675886 11.8075478710813  26.6071618641652 12.5276208727428  26.6524390243902 13.2488843683926  L 26.6524298428978 14.5692393795668  C 26.6268528720875 14.9745565249816  26.5776371835307 15.3776135966185  26.504782776591 15.7759705602315  C 26.4480113403613 16.3968062689731  26.7587018702421 16.9719777222717  27.2882010170319 17.2428621581227  C 27.6752323230986 17.6322190162628  28.2111804348357 17.8686991079445  28.820319476983 17.8686991079445  Z M 11.2783747687739 16.124758651517  C 12.8284785379385 16.124758651517  14.0850859257259 14.8754966630519  14.0850859257259 13.3344539031464  C 14.0850859257259 11.7934111432409  12.8284785379385 10.5441491547758  11.2783747687739 10.5441491547758  C 9.72827099960935 10.5441491547758  8.47166361182187 11.7934111432409  8.47166361182187 13.3344539031464  C 8.47166361182187 14.8754966630519  9.72827099960935 16.124758651517  11.2783747687739 16.124758651517  Z M 22.5052193783892 13.3344539031464  C 22.5052193783892 11.7934111432409  21.2486119906017 10.5441491547758  19.6985082214371 10.5441491547758  C 18.1484044522726 10.5441491547758  16.8917970644851 11.7934111432409  16.8917970644851 13.3344539031464  C 16.8917970644851 14.8754966630519  18.1484044522726 16.124758651517  19.6985082214371 16.124758651517  C 21.2486119906017 16.124758651517  22.5052193783892 14.8754966630519  22.5052193783892 13.3344539031464  Z " fill-rule="nonzero" fill="#009f82" stroke="none" transform="matrix(1 0 0 1 1220 17 )" />
  </g>
</svg>