<?xml version="1.0" encoding="utf-8"?>
<svg version="1.1" xmlns:xlink="http://www.w3.org/1999/xlink" width="36px" height="36px" xmlns="http://www.w3.org/2000/svg">
  <defs>
    <filter x="21px" y="10px" width="36px" height="36px" filterUnits="userSpaceOnUse" id="filter3">
      <feOffset dx="0" dy="0" in="SourceAlpha" result="shadowOffsetInner" />
      <feGaussianBlur stdDeviation="4" in="shadowOffsetInner" result="shadowGaussian" />
      <feComposite in2="shadowGaussian" operator="atop" in="SourceAlpha" result="shadowComposite" />
      <feColorMatrix type="matrix" values="0 0 0 0 0.2  0 0 0 0 0.2  0 0 0 0 0.2  0 0 0 0.588235294117647 0  " in="shadowComposite" />
    </filter>
    <g id="widget4">
      <path d="M 19.9882392473118 10.0168010752688  C 19.9882392473118 4.50604838709677  15.5191532258065 0.0369623655913979  10.0084005376344 0.0369623655913979  C 4.49554771505376 0.0369623655913979  0.0285618279569891 4.50604838709677  0.0285618279569891 10.0168010752688  C 0.0285618279569891 15.5275537634409  4.49764784946237 19.9966397849462  10.0084005376344 19.9966397849462  C 15.5191532258065 19.9966397849462  19.9882392473118 15.5275537634409  19.9882392473118 10.0168010752688  Z M 16.2584005376344 10.0168010752688  C 16.2584005376344 13.4673219086021  13.4610215053763 16.2668010752688  10.0084005376344 16.2668010752688  C 6.55577956989247 16.2668010752688  3.75840053763441 13.4694220430108  3.75840053763441 10.0168010752688  C 3.75840053763441 6.56418010752688  6.55577956989247 3.76680107526882  10.0084005376344 3.76680107526882  C 13.4610215053763 3.76680107526882  16.2584005376344 6.56628024193548  16.2584005376344 10.0168010752688  Z " fill-rule="nonzero" fill="#00e3e3" stroke="none" transform="matrix(1 0 0 1 29 18 )" />
    </g>
  </defs>
  <g transform="matrix(1 0 0 1 -21 -10 )">
    <use xlink:href="#widget4" filter="url(#filter3)" />
    <use xlink:href="#widget4" />
  </g>
</svg>