<?xml version="1.0" encoding="utf-8"?>
<svg version="1.1" xmlns:xlink="http://www.w3.org/1999/xlink" width="16px" height="16px" xmlns="http://www.w3.org/2000/svg">
  <g transform="matrix(1 0 0 1 -719 -208 )">
    <path d="M 15.1512957317073 4.47124233128834  L 11.4228714706749 8.22321218001689  L 15.3334703947368 12.1082516339869  C 16.2113486842105 12.9803921568627  16.2113486842105 14.3937908496732  15.3334703947368 15.265931372549  C 14.4555921052632 16.1380718954248  13.0308388157895 16.1380718954248  12.1529605263158 15.265931372549  L 8.26422461425557 11.4018063434075  L 4.5110518292683 15.1786809815951  C 4.0060975609756 15.6867331288344  3.34298780487802 15.9398006134969  2.68178353658539 15.9398006134969  C 2.0186737804878 15.9398006134969  1.35556402439022 15.6867331288344  0.852515243902417 15.1786809815951  C -0.157393292682912 14.1625766871166  -0.157393292682912 12.5118865030675  0.852515243902417 11.495782208589  L 4.58215496452829 7.7432612582254  L 0.672697368421041 3.85866013071895  C -0.205180921052659 2.98651960784314  -0.205180921052659 1.57312091503268  0.672697368421041 0.700980392156863  C 1.55057565789474 -0.171160130718954  2.97327302631578 -0.171160130718954  3.85115131578948 0.700980392156863  L 10.70632975314 7.51134613794502  L 14.4405487804878 3.75421779141104  C 15.0560213414634 3.13496932515337  15.0560213414634 2.12653374233129  14.4405487804878 1.50728527607362  C 13.8250762195122 0.888036809815952  12.8227896341463 0.888036809815951  12.2073170731707 1.50728527607362  L 10.6028963414634 3.11963190184049  C 10.406631097561 3.31710122699386  10.0865091463415 3.31710122699386  9.88833841463412 3.11963190184049  C 9.6920731707317 2.92216257668712  9.6920731707317 2.60007668711656  9.88833841463412 2.40069018404908  L 11.4908536585366 0.788343558282208  C 12.500762195122 -0.227760736196319  14.141387195122 -0.227760736196319  15.1512957317073 0.788343558282208  C 16.1612042682927 1.80444785276074  16.1612042682927 3.45513803680982  15.1512957317073 4.47124233128834  Z M 7.54740132153864 10.6896544748307  L 5.30078628147868 8.45733682185844  L 1.56516768292681 12.2147239263804  C 0.949695121951208 12.833972392638  0.949695121951208 13.8424079754601  1.56516768292681 14.4616564417178  C 2.18064024390242 15.0809049079755  3.1829268292683 15.0809049079755  3.7983993902439 14.4616564417178  L 7.54740132153864 10.6896544748307  Z " fill-rule="nonzero" fill="#f9f9f9" stroke="none" transform="matrix(1 0 0 1 719 208 )" />
  </g>
</svg>