<?xml version="1.0" encoding="utf-8"?>
<svg version="1.1" xmlns:xlink="http://www.w3.org/1999/xlink" width="40px" height="39px" xmlns="http://www.w3.org/2000/svg">
  <g transform="matrix(1 0 0 1 -503 -229 )">
    <path d="M 30.5999992811479 37.2738798089012  L 30.5999992811479 34.3617752074428  C 30.6975756514058 27.939595147767  26.837783761579 22.422723959145  21.3235690703028 20.0707136187317  C 24.211381294716 18.1253534389585  26.1144969474965 14.8073527915616  26.1144969474965 11.0448549157657  C 26.1144969474965 5.05997787276842  21.3191799869769 0.179692230324365  15.3649947609983 0.179692230324365  C 9.43079002235527 0.179692230324365  4.61549257450015 5.03989439275836  4.61549257450015 11.0448549157657  C 4.61549257450015 14.8175663606267  6.51617686418853 18.1304938336056  9.40088580800836 20.0722135561748  C 3.88247247197615 22.4250688299228  0 27.9409599539461  0 34.3617752074428  L 0 37.2738798089012  C 0 38.1374694493337  0.699317056742447 38.8203077696756  1.53849752483338 38.8203077696756  C 2.39765848025982 38.8203077696756  3.07699504966677 38.1173859693236  3.19999992482593 37.2738798089012  L 3.19999992482593 34.3617752074428  C 3.07699504966677 27.5133085240131  8.61159004159985 21.9501845612271  15.3849752483338 21.9501845612271  C 22.1583604550678 21.9501845612271  27.6729749596654 27.5133085240131  27.5999993516236 34.3617752074428  L 27.5999993516236 37.2738798089012  C 27.6729749596654 38.1374694493337  28.3722920164078 38.8203077696756  29.2114724844988 38.8203077696756  C 30.0506529525897 38.8203077696756  30.7499700093321 38.1173859693236  30.5999992811479 37.2738798089012  Z M 35.5452869698518 17.6523198390747  C 35.0982910445738 18.2952836873309  34.559142696372 18.857572025429  33.950773358116 19.3276609211976  C 37.5676794170717 21.4009949342875  40.0006315796516 25.3133724942369  39.9999990603241 29.8028252451597  L 39.9999990603241 31.991924566256  C 40.000935645668 32.8555142066885  39.3016185889255 33.5383525270304  38.4624381208345 33.5383525270304  C 37.6232576527436 33.5383525270304  36.9239405960012 32.8555142066885  36.7999991354982 31.991924566256  L 36.7999991354982 29.8028252451597  C 36.9239405960012 24.8622891626854  32.947823616237 20.8656766406839  28.0526042190399 20.8455931606739  C 27.2134237509489 20.8455931606739  26.5141066942065 20.1627548403319  26.5141066942065 19.2991651998994  C 26.5141066942065 18.4355755594669  27.1934432636134 17.752737239125  28.0526042190399 17.752737239125  C 28.6141927486012 17.754442626826  29.1665607803907 17.7948130618668  29.7072242923488 17.8713400334494  C 29.8154395873164 17.8258371937971  29.9304030713778 17.7924212156972  30.0506529525897 17.772820719135  C 32.5681943568625 17.3109006789037  34.2465552930444 14.8807995976867  33.7870040843279 12.3301976364093  C 33.5672187236374 11.1251888358059  32.8878821542305 10.0607643952728  31.9088382747911 9.3578425949208  C 30.9098139080161 8.65492079456877  29.6710236932152 8.37375207442796  28.4721944530853 8.5946703545386  C 27.6330139849944 8.69508775458889  26.8537749789099 8.09258335428715  26.7538725422325 7.24907719386472  C 26.653970105555 6.46582147347247  27.1734627762779 5.74281619311038  27.9327212950269 5.56206487301986  C 29.9507505159122 5.20056223283882  32.0087407114685 5.66248227307015  33.6871016476504 6.84740759366357  C 37.1637064440271 9.31767563490068  38.0028869121181 14.1577943173246  35.5452869698518 17.6523198390747  Z M 15.3649947609983 3.27254815187327  C 19.600858076124 3.27254815187327  23.0574823851652 6.74699019361328  23.0574823851652 11.0247714357556  C 23.0574823851652 15.3025526778979  19.600858076124 18.797078199648  15.3649947609983 18.797078199648  C 11.1291314458726 18.797078199648  7.6924876241669 15.322636157908  7.6924876241669 11.0448549157657  C 7.6924876241669 6.76707367362333  11.1291314458726 3.27254815187327  15.3649947609983 3.27254815187327  Z " fill-rule="nonzero" fill="#0084cc" stroke="none" transform="matrix(1 0 0 1 503 229 )" />
  </g>
</svg>