<?xml version="1.0" encoding="utf-8"?>
<svg version="1.1" xmlns:xlink="http://www.w3.org/1999/xlink" width="25px" height="25px" xmlns="http://www.w3.org/2000/svg">
  <g transform="matrix(1 0 0 1 -206 -16 )">
    <path d="M 1.5 3  C 0.660000000000025 3  0 2.34  0 1.5  C 0 0.659999999999997  0.660000000000025 0  1.5 0  L 16.2879377431907 0  L 23.5 0  C 24.34 0  25 0.659999999999997  25 1.5  C 25 2.34  24.34 3  23.5 3  L 1.5 3  Z M 10.5 10  C 9.66000000000003 10  9 9.34  9 8.5  C 9 7.66  9.66000000000003 7  10.5 7  L 23.5 7  C 24.34 7  25 7.66  25 8.5  C 25 9.34  24.34 10  23.5 10  L 10.5 10  Z M 10.5 18  C 9.66000000000003 18  9 17.34  9 16.5  C 9 15.66  9.66000000000003 15  10.5 15  L 23.5 15  C 24.34 15  25 15.66  25 16.5  C 25 17.34  24.34 18  23.5 18  L 10.5 18  Z M 1.5 25  C 0.660000000000025 25  0 24.34  0 23.5  C 0 22.66  0.660000000000025 22  1.5 22  L 23.5 22  C 24.34 22  25 22.66  25 23.5  C 25 24.34  24.34 25  23.5 25  L 1.5 25  Z M 4.64644660940672 17.0961940777125  L 5.35355339059333 7.9038059222874  L 0.403805922287461 12.8535533905932  L 4.64644660940672 17.0961940777125  Z " fill-rule="nonzero" fill="#18b193" stroke="none" transform="matrix(1 0 0 1 206 16 )" />
  </g>
</svg>