<?xml version="1.0" encoding="utf-8"?>
<svg version="1.1" xmlns:xlink="http://www.w3.org/1999/xlink" width="15px" height="23px" xmlns="http://www.w3.org/2000/svg">
  <g transform="matrix(1 0 0 1 -75 -146 )">
    <path d="M 8.603515625 21.715234375  C 8.90950520833333 21.4337239583333  9.0625 21.0953125  9.0625 20.7  C 9.0625 20.3046875  8.90950520833333 19.9662760416667  8.603515625 19.684765625  C 8.29752604166667 19.4032552083333  7.9296875 19.2625  7.5 19.2625  C 7.0703125 19.2625  6.70247395833333 19.4032552083333  6.396484375 19.684765625  C 6.09049479166667 19.9662760416667  5.9375 20.3046875  5.9375 20.7  C 5.9375 21.0953125  6.09049479166667 21.4337239583333  6.396484375 21.715234375  C 6.70247395833333 21.9967447916667  7.0703125 22.1375  7.5 22.1375  C 7.9296875 22.1375  8.29752604166667 21.9967447916667  8.603515625 21.715234375  Z M 12.939453125 18.229296875  C 13.0631510416667 18.1154947916667  13.125 17.9807291666667  13 17.825  L 13 5.175  C 13.125 5.01927083333333  13.0631510416667 4.88450520833333  12.939453125 4.770703125  C 12.8157552083333 4.65690104166667  12.6692708333333 4.6  12.5 5  L 2.5 5  C 2.33072916666667 4.6  2.18424479166667 4.65690104166667  2.060546875 4.770703125  C 1.93684895833333 4.88450520833333  1.875 5.01927083333333  2 5.175  L 2 17.825  C 1.875 17.9807291666667  1.93684895833333 18.1154947916667  2.060546875 18.229296875  C 2.18424479166667 18.3430989583333  2.33072916666667 18.4  2.5 18  L 12.5 18  C 12.6692708333333 18.4  12.8157552083333 18.3430989583333  12.939453125 18.229296875  Z M 9.0625 2.875  C 9.27083333333334 2.875  9.375 2.77916666666666  9.375 2.5875  C 9.375 2.39583333333333  9.27083333333334 2.3  9.0625 2.3  L 5.9375 2.3  C 5.72916666666667 2.3  5.625 2.39583333333333  5.625 2.5875  C 5.625 2.77916666666666  5.72916666666667 2.875  5.9375 2.875  L 9.0625 2.875  Z M 14.2578125 0.682812499999999  C 14.7526041666667 1.13802083333333  15 1.67708333333333  15 2.3  L 15 20.7  C 15 21.3229166666667  14.7526041666667 21.8619791666667  14.2578125 22.3171875  C 13.7630208333333 22.7723958333333  13.1770833333333 23  12.5 23  L 2.5 23  C 1.82291666666667 23  1.23697916666667 22.7723958333333  0.7421875 22.3171875  C 0.247395833333333 21.8619791666667  0 21.3229166666667  0 20.7  L 0 2.3  C 0 1.67708333333333  0.247395833333333 1.13802083333333  0.7421875 0.682812499999999  C 1.23697916666667 0.227604166666664  1.82291666666667 0  2.5 0  L 12.5 0  C 13.1770833333333 0  13.7630208333333 0.227604166666664  14.2578125 0.682812499999999  Z " fill-rule="nonzero" fill="#c5cafe" stroke="none" transform="matrix(1 0 0 1 75 146 )" />
  </g>
</svg>