<?xml version="1.0" encoding="utf-8"?>
<svg version="1.1" xmlns:xlink="http://www.w3.org/1999/xlink" width="16px" height="23px" xmlns="http://www.w3.org/2000/svg">
  <g transform="matrix(1 0 0 1 -75 -214 )">
    <path d="M 4.44444444444444 7.31818181818182  L 4.44444444444444 10.4545454545455  L 11.5555555555556 10.4545454545455  L 11.5555555555556 7.31818181818182  C 11.5555555555556 6.16382575757576  11.2083333333333 5.17826704545455  10.5138888888889 4.36150568181818  C 9.81944444444444 3.54474431818182  8.98148148148148 3.13636363636364  8 3.13636363636364  C 7.01851851851852 3.13636363636364  6.18055555555556 3.54474431818182  5.48611111111111 4.36150568181818  C 4.79166666666667 5.17826704545455  4.44444444444444 6.16382575757576  4.44444444444444 7.31818181818182  Z M 15.6111111111111 10.9119318181818  C 15.8703703703704 11.2168560606061  16 11.5871212121212  16 12.0227272727273  L 16 21.4318181818182  C 16 21.8674242424242  15.8703703703704 22.2376893939394  15.6111111111111 22.5426136363636  C 15.3518518518519 22.8475378787879  15.037037037037 23  14.6666666666667 23  L 1.33333333333333 23  C 0.962962962962963 23  0.648148148148148 22.8475378787879  0.388888888888889 22.5426136363636  C 0.12962962962963 22.2376893939394  0 21.8674242424242  0 21.4318181818182  L 0 12.0227272727273  C 0 11.5871212121212  0.12962962962963 11.2168560606061  0.388888888888889 10.9119318181818  C 0.648148148148148 10.6070075757576  0.962962962962963 10.4545454545455  1.33333333333333 10.4545454545455  L 1.77777777777778 10.4545454545455  L 1.77777777777778 7.31818181818182  C 1.77777777777778 5.31439393939394  2.38888888888889 3.59375  3.61111111111111 2.15625  C 4.83333333333333 0.71875  6.2962962962963 0  8 0  C 9.7037037037037 0  11.1666666666667 0.71875  12.3888888888889 2.15625  C 13.6111111111111 3.59375  14.2222222222222 5.31439393939394  14.2222222222222 7.31818181818182  L 14.2222222222222 10.4545454545455  L 14.6666666666667 10.4545454545455  C 15.037037037037 10.4545454545455  15.3518518518519 10.6070075757576  15.6111111111111 10.9119318181818  Z " fill-rule="nonzero" fill="#c5cafe" stroke="none" transform="matrix(1 0 0 1 75 214 )" />
  </g>
</svg>